REM DIRINDEX 1\2,1\3
REM DIRNAME cjc132,folder01,folder02
TITLE ""
FILE "55.mp3" MP3
  TRACK 01 AUDIO
    TITLE "0:"
    INDEX 01 00:00:00
  TRACK 02 AUDIO
    TITLE "3:cjc132_1056"
    INDEX 01 00:00:15
  TRACK 03 AUDIO
    TITLE "0:"
    INDEX 01 00:01:13
  TRACK 04 AUDIO
    TITLE "2:cjc132_1057"
    INDEX 01 00:01:64
  TRACK 05 AUDIO
    TITLE "0:"
    INDEX 01 00:03:08
  TRACK 06 AUDIO
    TITLE "2:cjc132_1058"
    INDEX 01 00:03:61
  TRACK 07 AUDIO
    TITLE "0:"
    INDEX 01 00:05:28
  TRACK 08 AUDIO
    TITLE "2:cjc132_1059"
    INDEX 01 00:06:04
  TRACK 09 AUDIO
    TITLE "0:"
    INDEX 01 00:07:56
  TRACK 10 AUDIO
    TITLE "2:cjc132_1060"
    INDEX 01 00:08:30
  TRACK 11 AUDIO
    TITLE "0:"
    INDEX 01 00:10:10
  TRACK 12 AUDIO
    TITLE "2:cjc132_1061"
    INDEX 01 00:11:23
  TRACK 13 AUDIO
    TITLE "0:"
    INDEX 01 00:13:04
  TRACK 14 AUDIO
    TITLE "2:cjc132_1062"
    INDEX 01 00:15:07
  TRACK 15 AUDIO
    TITLE "0:"
    INDEX 01 00:16:71
  TRACK 16 AUDIO
    TITLE "2:cjc132_1063"
    INDEX 01 00:19:07
  TRACK 17 AUDIO
    TITLE "0:"
    INDEX 01 00:21:21
  TRACK 18 AUDIO
    TITLE "2:cjc132_1064"
    INDEX 01 00:23:55
  TRACK 19 AUDIO
    TITLE "0:"
    INDEX 01 00:25:25
  TRACK 20 AUDIO
    TITLE "2:cjc132_1065"
    INDEX 01 00:27:18
  TRACK 21 AUDIO
    TITLE "0:"
    INDEX 01 00:28:64
  TRACK 22 AUDIO
    TITLE "2:cjc132_1066"
    INDEX 01 00:30:54
  TRACK 23 AUDIO
    TITLE "0:"
    INDEX 01 00:32:07
  TRACK 24 AUDIO
    TITLE "2:cjc132_1067"
    INDEX 01 00:33:52
  TRACK 25 AUDIO
    TITLE "0:"
    INDEX 01 00:35:31
  TRACK 26 AUDIO
    TITLE "2:cjc132_1068"
    INDEX 01 00:37:26
  TRACK 27 AUDIO
    TITLE "0:"
    INDEX 01 00:38:65
  TRACK 28 AUDIO
    TITLE "2:cjc132_1069"
    INDEX 01 00:40:48
  TRACK 29 AUDIO
    TITLE "0:"
    INDEX 01 00:42:23
  TRACK 30 AUDIO
    TITLE "2:cjc132_1070"
    INDEX 01 00:44:20
  TRACK 31 AUDIO
    TITLE "0:"
    INDEX 01 00:46:39
  TRACK 32 AUDIO
    TITLE "2:cjc132_1071"
    INDEX 01 00:49:10
  TRACK 33 AUDIO
    TITLE "0:"
    INDEX 01 00:50:66
  TRACK 34 AUDIO
    TITLE "2:cjc132_1072"
    INDEX 01 00:52:71
  TRACK 35 AUDIO
    TITLE "0:"
    INDEX 01 00:54:72
  TRACK 36 AUDIO
    TITLE "2:cjc132_1073"
    INDEX 01 00:57:23
  TRACK 37 AUDIO
    TITLE "0:"
    INDEX 01 00:59:36
  TRACK 38 AUDIO
    TITLE "2:cjc132_1074"
    INDEX 01 01:02:01
  TRACK 39 AUDIO
    TITLE "0:"
    INDEX 01 01:03:51
  TRACK 40 AUDIO
    TITLE "2:cjc132_1075"
    INDEX 01 01:05:48
  TRACK 41 AUDIO
    TITLE "0:"
    INDEX 01 01:07:39
  TRACK 42 AUDIO
    TITLE "2:cjc132_1076"
    INDEX 01 01:09:52
  TRACK 43 AUDIO
    TITLE "0:"
    INDEX 01 01:11:43
  TRACK 44 AUDIO
    TITLE "2:cjc132_1077"
    INDEX 01 01:13:57
  TRACK 45 AUDIO
    TITLE "0:"
    INDEX 01 01:15:42
  TRACK 46 AUDIO
    TITLE "2:cjc132_1078"
    INDEX 01 01:17:53
  TRACK 47 AUDIO
    TITLE "0:"
    INDEX 01 01:19:32
  TRACK 48 AUDIO
    TITLE "2:cjc132_1079"
    INDEX 01 01:21:35
  TRACK 49 AUDIO
    TITLE "0:"
    INDEX 01 01:23:32
  TRACK 50 AUDIO
    TITLE "2:cjc132_1080"
    INDEX 01 01:25:53
  TRACK 51 AUDIO
    TITLE "0:"
    INDEX 01 01:27:40
  TRACK 52 AUDIO
    TITLE "2:cjc132_1081"
    INDEX 01 01:29:52
  TRACK 53 AUDIO
    TITLE "0:"
    INDEX 01 01:31:26
  TRACK 54 AUDIO
    TITLE "2:cjc132_1082"
    INDEX 01 01:33:23
  TRACK 55 AUDIO
    TITLE "0:"
    INDEX 01 01:35:53
  TRACK 56 AUDIO
    TITLE "2:cjc132_1083"
    INDEX 01 01:38:30
  TRACK 57 AUDIO
    TITLE "0:"
    INDEX 01 01:40:48
  TRACK 58 AUDIO
    TITLE "2:cjc132_1084"
    INDEX 01 01:43:15
  TRACK 59 AUDIO
    TITLE "0:"
    INDEX 01 01:45:34
  TRACK 60 AUDIO
    TITLE "2:cjc132_1085"
    INDEX 01 01:48:03
  TRACK 61 AUDIO
    TITLE "0:"
    INDEX 01 01:50:02
  TRACK 62 AUDIO
    TITLE "2:cjc132_1086"
    INDEX 01 01:52:24
  TRACK 63 AUDIO
    TITLE "0:"
    INDEX 01 01:54:21
  TRACK 64 AUDIO
    TITLE "2:cjc132_1087"
    INDEX 01 01:56:37
  TRACK 65 AUDIO
    TITLE "0:"
    INDEX 01 01:58:50
